# xmcd
#
# Track frame offsets:
#	150
#	13524
#	27181
#	41112
#	56406
#	71308
#	86203
#	97740
#	109622
#	127725
#	141098
#	154519
#	168013
#	181812
#	195860
#	209489
#	220829
#	237234
#	258821
#	275616
#	294924
#	308229
#	319598
#	331934
#
# Disc length: 4647 seconds
#
# Revision: 0
# Processed by: cddbd v1.5.2PL0 Copyright (c) Steve Scherf et al.
# Submitted via: EasyCDDAExtractor 15.2.1.1
#
DISCID=39122518
DTITLE=Salvatore Adamo - 24 Exitos en espanol
DYEAR=2001
DGENRE=other
TTITLE0=Mis manos en tu cintura
TTITLE1=Mi gran noche
TTITLE2=Quiero
TTITLE3=Pequeña Felicidad
TTITLE4=Nuestra novela
TTITLE5=La noche
TTITLE6=Tu nombre
TTITLE7=Porque yo quiero
TTITLE8=Marie La Mer
TTITLE9=El anuncio
TTITLE10=Yo te ofrezco
TTITLE11=El tiempo se detiene
TTITLE12=Un mechon de tus cabellos
TTITLE13=Arroyo de tu infancia
TTITLE14=Ella
TTITLE15=Vivir
TTITLE16=Era una linda flor
TTITLE17=Inch Allah
TTITLE18=En bandolera
TTITLE19=Es mi vida
TTITLE20=Una lagrima en las nubes
TTITLE21=Como las rozas
TTITLE22=Nada que hacer
TTITLE23=Mañana en  la luna
EXTD=
EXTT0=
EXTT1=
EXTT2=
EXTT3=
EXTT4=
EXTT5=
EXTT6=
EXTT7=
EXTT8=
EXTT9=
EXTT10=
EXTT11=
EXTT12=
EXTT13=
EXTT14=
EXTT15=
EXTT16=
EXTT17=
EXTT18=
EXTT19=
EXTT20=
EXTT21=
EXTT22=
EXTT23=
PLAYORDER=
